<svg height="2030" width="720" xmlns="http://www.w3.org/2000/svg">
<rect height="2030" fill="#555" width="720"></rect>
<text fill="#7f7" font-family="Courier New" font-size="12" xml:space="preserve">
<tspan x="10" y="26"></tspan>
<tspan x="10" y="42">&gt; npmdoc-gulp-if@0.0.4 test /home/travis/build/npmdoc/node-npmdoc-gulp-if</tspan>
<tspan x="10" y="58">&gt; (set -e; export PORT=$(utility2 shServerPortRandom); utility2 test test.js)</tspan>
<tspan x="10" y="74"></tspan>
<tspan x="10" y="90"></tspan>
<tspan x="10" y="106">[MODE_BUILD=npmTest] - 2017-04-08T05:07:23Z - npm-testing /home/travis/build/npmdoc/node-npmdoc-\</tspan>
<tspan x="10" y="122">gulp-if</tspan>
<tspan x="10" y="138"></tspan>
<tspan x="10" y="154"></tspan>
<tspan x="10" y="170">covering $ /home/travis/.nvm/versions/node/v7.8.0/bin/node /home/travis/build/npmdoc/node-npmdoc\</tspan>
<tspan x="10" y="186">-gulp-if/test.js</tspan>
<tspan x="10" y="202">merging file:///home/travis/build/npmdoc/node-npmdoc-gulp-if/tmp/build/test-report.json to test-\</tspan>
<tspan x="10" y="218">report</tspan>
<tspan x="10" y="234">&gt; server listening on http-port 64725</tspan>
<tspan x="10" y="250">created apidoc file:///home/travis/build/npmdoc/node-npmdoc-gulp-if/tmp/build/apidoc.html</tspan>
<tspan x="10" y="266"></tspan>
<tspan x="10" y="282"></tspan>
<tspan x="10" y="298">browserTest - created electron entry-page /home/travis/build/npmdoc/node-npmdoc-gulp-if/tmp/elec\</tspan>
<tspan x="10" y="314">tron.15b4bf5b0f00.b58aedfcf6573.html</tspan>
<tspan x="10" y="330"></tspan>
<tspan x="10" y="346">[node test-case 1 of 6 passed] - testCase_buildLib_default</tspan>
<tspan x="10" y="362">[node test-case 2 of 6 passed] - testCase_buildReadme_default</tspan>
<tspan x="10" y="378">[node test-case 3 of 6 passed] - testCase_buildTest_default</tspan>
<tspan x="10" y="394"></tspan>
<tspan x="10" y="410">browserTest - created electron entry-page /home/travis/build/npmdoc/node-npmdoc-gulp-if/tmp/elec\</tspan>
<tspan x="10" y="426">tron.15b4bf5b1190.b1855f9b48fa6.html</tspan>
<tspan x="10" y="442"></tspan>
<tspan x="10" y="458">(node:4974) DeprecationWarning: node --debug is deprecated. Please use node --inspect instead.</tspan>
<tspan x="10" y="474">Xlib:  extension "RANDR" missing on display ":99.0".</tspan>
<tspan x="10" y="490">Xlib:  extension "RANDR" missing on display ":99.0".</tspan>
<tspan x="10" y="506">merging file:///home/travis/build/npmdoc/node-npmdoc-gulp-if/tmp/build/test-report.json to test-\</tspan>
<tspan x="10" y="522">report</tspan>
<tspan x="10" y="538">Xlib:  extension "RANDR" missing on display ":99.0".</tspan>
<tspan x="10" y="554">&gt; [5012:0408/050725:WARNING:audio_manager.cc(314)] Multiple instances of AudioManager detected</tspan>
<tspan x="10" y="570">[5012:0408/050725:WARNING:audio_manager.cc(275)] Multiple instances of AudioManager detected</tspan>
<tspan x="10" y="586">server listening on http-port 49640</tspan>
<tspan x="10" y="602">[5045:0408/050725:ERROR:sandbox_linux.cc(343)] InitializeSandbox() called with multiple threads \</tspan>
<tspan x="10" y="618">in process gpu-process. </tspan>
<tspan x="10" y="634">[5012:0408/050725:ERROR:browser_gpu_channel_host_factory.cc(131)] Failed to create channel.</tspan>
<tspan x="10" y="650">merging file:///home/travis/build/npmdoc/node-npmdoc-gulp-if/tmp/build/test-report.json to test-\</tspan>
<tspan x="10" y="666">report</tspan>
<tspan x="10" y="682">Xlib:  extension "RANDR" missing on display ":99.0".</tspan>
<tspan x="10" y="698">[5014:0408/050725:WARNING:audio_manager.cc(314)] Multiple instances of AudioManager detected</tspan>
<tspan x="10" y="714">[5014:0408/050725:WARNING:audio_manager.cc(275)] Multiple instances of AudioManager detected</tspan>
<tspan x="10" y="730">[5081:0408/050725:ERROR:sandbox_linux.cc(343)] InitializeSandbox() called with multiple threads \</tspan>
<tspan x="10" y="746">in process gpu-process. </tspan>
<tspan x="10" y="762">[5014:0408/050725:ERROR:browser_gpu_channel_host_factory.cc(131)] Failed to create channel.</tspan>
<tspan x="10" y="778"></tspan>
<tspan x="10" y="794">browserTest - opened url /home/travis/build/npmdoc/node-npmdoc-gulp-if/tmp/build/apidoc.html</tspan>
<tspan x="10" y="810"></tspan>
<tspan x="10" y="826"></tspan>
<tspan x="10" y="842">browserTest - opened url http://127.0.0.1:64725?modeTest=1</tspan>
<tspan x="10" y="858"></tspan>
<tspan x="10" y="874">[5014:0408/050727:INFO:CONSOLE(248)] "----------|-----------|-----------|-----------|-----------\</tspan>
<tspan x="10" y="890">|</tspan>
<tspan x="10" y="906">File      |   % Stmts |% Branches |   % Funcs |   % Lines |</tspan>
<tspan x="10" y="922">----------|-----------|-----------|-----------|-----------|</tspan>
<tspan x="10" y="938">----------|-----------|-----------|-----------|-----------|</tspan>
<tspan x="10" y="954">All files |       100 |       100 |       100 |       100 |</tspan>
<tspan x="10" y="970">----------|-----------|-----------|-----------|-----------|</tspan>
<tspan x="10" y="986">", source: file:///home/travis/build/npmdoc/node-npmdoc-gulp-if/tmp/electron.15b4bf5b1190.b1855f\</tspan>
<tspan x="10" y="1002">9b48fa6.html (248)</tspan>
<tspan x="10" y="1018">[5014:0408/050727:INFO:CONSOLE(248)] "created coverage file:///tmp/build/coverage.html/index.htm\</tspan>
<tspan x="10" y="1034">l", source: file:///home/travis/build/npmdoc/node-npmdoc-gulp-if/tmp/electron.15b4bf5b1190.b1855\</tspan>
<tspan x="10" y="1050">f9b48fa6.html (248)</tspan>
<tspan x="10" y="1066">[node test-case 4 of 6 passed] - testCase_buildApp_default</tspan>
<tspan x="10" y="1082"></tspan>
<tspan x="10" y="1098">browserTest - created screenCapture file:///home/travis/build/npmdoc/node-npmdoc-gulp-if/tmp/bui\</tspan>
<tspan x="10" y="1114">ld/screenCapture.npmTest.browser.%2Fhome%2Ftravis%2Fbuild%2Fnpmdoc%2Fnode-npmdoc-gulp-if%2Ftmp%2\</tspan>
<tspan x="10" y="1130">Fbuild%2Fapidoc.html.png</tspan>
<tspan x="10" y="1146"></tspan>
<tspan x="10" y="1162">browserTest - created screenCapture file:///home/travis/build/npmdoc/node-npmdoc-gulp-if/tmp/bui\</tspan>
<tspan x="10" y="1178">ld/screenCapture.npmTest.browser.%2Fhome%2Ftravis%2Fbuild%2Fnpmdoc%2Fnode-npmdoc-gulp-if%2Ftmp%2\</tspan>
<tspan x="10" y="1194">Fbuild%2Fapidoc.html.html</tspan>
<tspan x="10" y="1210"></tspan>
<tspan x="10" y="1226">browserTest - exit-code 0 - /home/travis/build/npmdoc/node-npmdoc-gulp-if/tmp/build/apidoc.html</tspan>
<tspan x="10" y="1242"></tspan>
<tspan x="10" y="1258">[node test-case 5 of 6 passed] - testCase_buildApidoc_default</tspan>
<tspan x="10" y="1274"></tspan>
<tspan x="10" y="1290">browserTest - created screenCapture file:///home/travis/build/npmdoc/node-npmdoc-gulp-if/tmp/bui\</tspan>
<tspan x="10" y="1306">ld/screenCapture.npmTest.browser.%2F.png</tspan>
<tspan x="10" y="1322"></tspan>
<tspan x="10" y="1338">browserTest - created screenCapture file:///home/travis/build/npmdoc/node-npmdoc-gulp-if/tmp/bui\</tspan>
<tspan x="10" y="1354">ld/screenCapture.npmTest.browser.%2F.html</tspan>
<tspan x="10" y="1370"></tspan>
<tspan x="10" y="1386">browserTest - exit-code 0 - http://127.0.0.1:64725?modeTest=1</tspan>
<tspan x="10" y="1402"></tspan>
<tspan x="10" y="1418"></tspan>
<tspan x="10" y="1434">browserTest - merged coverage from /home/travis/build/npmdoc/node-npmdoc-gulp-if/tmp/coverage.np\</tspan>
<tspan x="10" y="1450">mTest.browser.%2F.json</tspan>
<tspan x="10" y="1466"></tspan>
<tspan x="10" y="1482"></tspan>
<tspan x="10" y="1498">browserTest - merging test-report from /home/travis/build/npmdoc/node-npmdoc-gulp-if/tmp/test-re\</tspan>
<tspan x="10" y="1514">port.npmTest.browser.%2F.json</tspan>
<tspan x="10" y="1530"></tspan>
<tspan x="10" y="1546">[node test-case 6 of 6 passed] - testCase_webpage_default</tspan>
<tspan x="10" y="1562">----------------------------|-----------|-----------|-----------|-----------|</tspan>
<tspan x="10" y="1578">File                        |   % Stmts |% Branches |   % Funcs |   % Lines |</tspan>
<tspan x="10" y="1594">----------------------------|-----------|-----------|-----------|-----------|</tspan>
<tspan x="10" y="1610">   node-npmdoc-gulp-if/     |       100 |       100 |       100 |       100 |</tspan>
<tspan x="10" y="1626">      example.js            |       100 |       100 |       100 |       100 |</tspan>
<tspan x="10" y="1642">      lib.npmdoc_gulp_if.js |       100 |       100 |       100 |       100 |</tspan>
<tspan x="10" y="1658">      test.js               |       100 |       100 |       100 |       100 |</tspan>
<tspan x="10" y="1674">----------------------------|-----------|-----------|-----------|-----------|</tspan>
<tspan x="10" y="1690">All files                   |       100 |       100 |       100 |       100 |</tspan>
<tspan x="10" y="1706">----------------------------|-----------|-----------|-----------|-----------|</tspan>
<tspan x="10" y="1722"></tspan>
<tspan x="10" y="1738">created coverage file:///home/travis/build/npmdoc/node-npmdoc-gulp-if/tmp/build/coverage.html/in\</tspan>
<tspan x="10" y="1754">dex.html</tspan>
<tspan x="10" y="1770">merging file:///home/travis/build/npmdoc/node-npmdoc-gulp-if/tmp/build/test-report.json to test-\</tspan>
<tspan x="10" y="1786">report</tspan>
<tspan x="10" y="1802"></tspan>
<tspan x="10" y="1818">-------------------------------------------------------</tspan>
<tspan x="10" y="1834">| test-report - buildNpmdoc - node - linux v7.8.0 - 2017-04-08T05:07:03.686Z</tspan>
<tspan x="10" y="1850">|   35985 ms            0 failed        6 passed      |</tspan>
<tspan x="10" y="1866">-------------------------------------------------------</tspan>
<tspan x="10" y="1882"></tspan>
<tspan x="10" y="1898">created test-report file:///home/travis/build/npmdoc/node-npmdoc-gulp-if/tmp/build/test-report.h\</tspan>
<tspan x="10" y="1914">tml</tspan>
<tspan x="10" y="1930"></tspan>
<tspan x="10" y="1946"></tspan>
<tspan x="10" y="1962">npmTest - 0 failed tests</tspan>
<tspan x="10" y="1978"></tspan>
<tspan x="10" y="1994"></tspan>
<tspan x="10" y="2010">[MODE_BUILD=npmTest] - 2017-04-08T05:07:42Z - EXIT_CODE - 0</tspan>
</text>
</svg>
